<mxfile host="app.diagrams.net" modified="2021-09-02T06:59:34.525Z" agent="5.0 (Windows)" etag="6RKayszXVSnCk_XFzGYY" version="15.0.2" type="github">
  <diagram id="55jkiJdOHpuFxrlbwba9" name="Page-1">
    <mxGraphModel dx="2333" dy="1139" grid="1" gridSize="10" guides="1" tooltips="1" connect="1" arrows="1" fold="1" page="1" pageScale="1" pageWidth="827" pageHeight="1169" math="0" shadow="0">
      <root>
        <mxCell id="0" />
        <mxCell id="1" parent="0" />
        <mxCell id="Hb-XyFJxN74L1rWlCScT-1" value="COIN" style="rounded=0;whiteSpace=wrap;html=1;" parent="1" vertex="1">
          <mxGeometry x="320" y="60" width="120" height="60" as="geometry" />
        </mxCell>
        <mxCell id="Hb-XyFJxN74L1rWlCScT-6" value="IDO platform" style="rounded=0;whiteSpace=wrap;html=1;" parent="1" vertex="1">
          <mxGeometry x="120" y="459" width="120" height="60" as="geometry" />
        </mxCell>
        <mxCell id="Hb-XyFJxN74L1rWlCScT-7" value="&lt;div&gt;IDO Platform&lt;/div&gt;&lt;div&gt;Platform&lt;br&gt;&lt;/div&gt;" style="rounded=0;whiteSpace=wrap;html=1;" parent="1" vertex="1">
          <mxGeometry x="120" y="340" width="120" height="60" as="geometry" />
        </mxCell>
        <mxCell id="Hb-XyFJxN74L1rWlCScT-8" value="Exchange" style="rounded=0;whiteSpace=wrap;html=1;" parent="1" vertex="1">
          <mxGeometry x="520" y="459" width="120" height="60" as="geometry" />
        </mxCell>
        <mxCell id="Hb-XyFJxN74L1rWlCScT-9" value="Exchange Platform" style="rounded=0;whiteSpace=wrap;html=1;" parent="1" vertex="1">
          <mxGeometry x="520" y="340" width="120" height="60" as="geometry" />
        </mxCell>
        <mxCell id="Hb-XyFJxN74L1rWlCScT-11" value="" style="endArrow=classic;html=1;entryX=0.5;entryY=1;entryDx=0;entryDy=0;exitX=0.5;exitY=0;exitDx=0;exitDy=0;" parent="1" source="Hb-XyFJxN74L1rWlCScT-6" target="Hb-XyFJxN74L1rWlCScT-7" edge="1">
          <mxGeometry width="50" height="50" relative="1" as="geometry">
            <mxPoint x="182" y="460" as="sourcePoint" />
            <mxPoint x="181" y="404.02" as="targetPoint" />
          </mxGeometry>
        </mxCell>
        <mxCell id="Hb-XyFJxN74L1rWlCScT-13" value="Many To Many" style="text;html=1;align=center;verticalAlign=middle;resizable=0;points=[];autosize=1;strokeColor=none;" parent="1" vertex="1">
          <mxGeometry x="182" y="420" width="90" height="20" as="geometry" />
        </mxCell>
        <mxCell id="Hb-XyFJxN74L1rWlCScT-14" value="" style="endArrow=classic;html=1;entryX=0.5;entryY=1;entryDx=0;entryDy=0;exitX=0.5;exitY=0;exitDx=0;exitDy=0;" parent="1" edge="1">
          <mxGeometry width="50" height="50" relative="1" as="geometry">
            <mxPoint x="580" y="459.5" as="sourcePoint" />
            <mxPoint x="580" y="400.5" as="targetPoint" />
          </mxGeometry>
        </mxCell>
        <mxCell id="Hb-XyFJxN74L1rWlCScT-15" value="Many To Many" style="text;html=1;align=center;verticalAlign=middle;resizable=0;points=[];autosize=1;strokeColor=none;" parent="1" vertex="1">
          <mxGeometry x="582" y="420.5" width="90" height="20" as="geometry" />
        </mxCell>
        <mxCell id="Hb-XyFJxN74L1rWlCScT-16" value="" style="endArrow=classic;html=1;exitX=0.5;exitY=0;exitDx=0;exitDy=0;entryX=0;entryY=1;entryDx=0;entryDy=0;" parent="1" source="Hb-XyFJxN74L1rWlCScT-7" target="Hb-XyFJxN74L1rWlCScT-1" edge="1">
          <mxGeometry width="50" height="50" relative="1" as="geometry">
            <mxPoint x="340" y="320" as="sourcePoint" />
            <mxPoint x="340" y="210" as="targetPoint" />
            <Array as="points">
              <mxPoint x="180" y="210" />
            </Array>
          </mxGeometry>
        </mxCell>
        <mxCell id="Hb-XyFJxN74L1rWlCScT-19" value="" style="endArrow=classic;html=1;exitX=0.5;exitY=0;exitDx=0;exitDy=0;entryX=1;entryY=1;entryDx=0;entryDy=0;" parent="1" target="Hb-XyFJxN74L1rWlCScT-1" edge="1">
          <mxGeometry width="50" height="50" relative="1" as="geometry">
            <mxPoint x="582" y="340" as="sourcePoint" />
            <mxPoint x="420" y="210" as="targetPoint" />
            <Array as="points">
              <mxPoint x="582" y="210" />
            </Array>
          </mxGeometry>
        </mxCell>
        <mxCell id="Hb-XyFJxN74L1rWlCScT-20" value="Many To One" style="text;html=1;align=center;verticalAlign=middle;resizable=0;points=[];autosize=1;strokeColor=none;" parent="1" vertex="1">
          <mxGeometry x="182" y="260" width="90" height="20" as="geometry" />
        </mxCell>
        <mxCell id="Hb-XyFJxN74L1rWlCScT-21" value="Many To One" style="text;html=1;align=center;verticalAlign=middle;resizable=0;points=[];autosize=1;strokeColor=none;" parent="1" vertex="1">
          <mxGeometry x="480" y="260" width="90" height="20" as="geometry" />
        </mxCell>
        <mxCell id="Hb-XyFJxN74L1rWlCScT-22" value="NEW" style="whiteSpace=wrap;html=1;shape=mxgraph.basic.cloud_callout" parent="1" vertex="1">
          <mxGeometry x="640" y="280" width="90" height="60" as="geometry" />
        </mxCell>
        <mxCell id="Hb-XyFJxN74L1rWlCScT-23" value="NEW" style="whiteSpace=wrap;html=1;shape=mxgraph.basic.cloud_callout;shadow=0;flipH=1;" parent="1" vertex="1">
          <mxGeometry x="30" y="280" width="90" height="60" as="geometry" />
        </mxCell>
      </root>
    </mxGraphModel>
  </diagram>
</mxfile>
